<svg xmlns="http://www.w3.org/2000/svg" viewBox="0 0 77.45 74.24"><defs><style>.cls-1{fill:#7bc9ac;}.cls-2{fill:none;stroke:#000;stroke-miterlimit:10;}</style></defs><g id="Layer_1" data-name="Layer 1"><g id="Layer_1-2" data-name="Layer 1"><circle class="cls-1" cx="40.65" cy="36.8" r="36.8"/></g></g><g id="Layer_8" data-name="Layer 8"><path class="cls-2" d="M77.05,110.21s.8,8.7-4.35,10.74l2.19,6.92H94.71l2.75-6.65s-5.32-2.93-4.7-11Z" transform="translate(-72.08 -54.13)"/><path class="cls-2" d="M92.76,110.21s4.35-1.51,1.06-5.06H76.25s-3.55,2.57.8,5.06" transform="translate(-72.08 -54.13)"/><line class="cls-2" x1="10.03" y1="67" x2="0.62" y2="66.82"/><line class="cls-2" x1="13.49" y1="67" x2="16.86" y2="67"/><path class="cls-2" d="M85,105.15s.16-6.4,2.29-8,8.87-5.28,12.25-5.63c0,0,5-8.7,10.56-11.63s13.23-4.35,15.09-6.13,4.44-4.26,4.17-7.1c0,0-13.22-1.6-21.48,1.07S89.65,78.16,86.37,86.86c0,0-1.6,6.56.89,10.34" transform="translate(-72.08 -54.13)"/><path class="cls-2" d="M87.26,97.2s1-9.5,10.91-17.34l.92-.71c4.46-3.28,10.58-6.2,19-7.91" transform="translate(-72.08 -54.13)"/><path class="cls-2" d="M97.25,80.61s6.3-2.6,12-.17" transform="translate(-72.08 -54.13)"/><path class="cls-2" d="M93.24,84.64s7-1.54,11,.3" transform="translate(-72.08 -54.13)"/></g></svg>