<svg xmlns="http://www.w3.org/2000/svg" viewBox="0 0 78.46 73.6"><defs><style>.cls-1{fill:#7bc9ac;}.cls-2{fill:none;stroke:#000;stroke-miterlimit:10;}</style></defs><g id="Layer_1" data-name="Layer 1"><g id="Layer_1-2" data-name="Layer 1"><circle class="cls-1" cx="41.66" cy="36.8" r="36.8"/></g></g><g id="Layer_6" data-name="Layer 6"><path class="cls-2" d="M93.09,75.71h29s2.4,0,2.47,3,0,8,0,8-4.15,0-4.23,3.34,0,8.28,0,8.28a3.43,3.43,0,0,0,4.23,3.38v8.73s-.21,2.32-2.25,2.39-47.73,0-47.73,0-2.88-.49-3-2.68,0-8.44,0-8.44,4.93.14,5-3,.14-8.63.14-8.63-.34-3.34-5.17-2.91V79s-.46-3.17,2.5-3.24,13.37,0,13.37,0" transform="translate(-71.07 -54.13)"/><path class="cls-2" d="M68.46,66.45" transform="translate(-71.07 -54.13)"/><path class="cls-2" d="M97.11,79.47a2.06,2.06,0,0,1,3,.85l1.06,2.11s.14.85-1.06,2-3,2.54-3,2.54-5.21-1.06-3.38-3.31l3.38-4.16L80.21,63.64s-1.55-.71-2-.36-1.55.78,0,2.47S93.94,82.64,93.94,82.64" transform="translate(-71.07 -54.13)"/><path class="cls-2" d="M97.11,86.94s1,2.67,3,2.81,3.31.63,3.73.24l.39-.45a9.66,9.66,0,0,1-.56-3.66s-1-2.39-2.29-2.29l-.75.25Z" transform="translate(-71.07 -54.13)"/><line class="cls-2" x1="3.72" y1="27.78" x2="1.1" y2="27.78"/><line class="cls-2" x1="6.63" y1="27.78" x2="10.9" y2="27.78"/><line class="cls-2" x1="13.81" y1="27.78" x2="18.17" y2="27.78"/><line class="cls-2" x1="35.92" y1="27.78" x2="39.95" y2="27.78"/><line class="cls-2" x1="42.77" y1="27.78" x2="47.27" y2="27.78"/><line class="cls-2" x1="49.95" y1="27.78" x2="53.52" y2="27.78"/><line class="cls-2" x1="3.43" y1="55.52" x2="0.8" y2="55.52"/><line class="cls-2" x1="6.34" y1="55.52" x2="10.61" y2="55.52"/><line class="cls-2" x1="13.52" y1="55.52" x2="17.88" y2="55.52"/><line class="cls-2" x1="35.62" y1="55.52" x2="39.65" y2="55.52"/><line class="cls-2" x1="42.47" y1="55.52" x2="46.97" y2="55.52"/><line class="cls-2" x1="21.33" y1="55.52" x2="25.37" y2="55.52"/><line class="cls-2" x1="28.18" y1="55.52" x2="32.69" y2="55.52"/><line class="cls-2" x1="49.65" y1="55.52" x2="53.22" y2="55.52"/><path class="cls-2" d="M79.84,90.14v8.92s.72,2.47,2.79,2.59,5,0,5,0,2.91-.45,2.91-3.17V89.66s-.28-2.59-2.63-2.8a44,44,0,0,0-5.91.08A3.16,3.16,0,0,0,79.84,90.14Z" transform="translate(-71.07 -54.13)"/><path class="cls-2" d="M97.32,87.12c-2.35-.21-2.07.15-2.07.15a3.17,3.17,0,0,0-2.13,3.2V99.4s.72,2.47,2.79,2.58,5,0,5,0,2.91-.44,2.91-3.16V90" transform="translate(-71.07 -54.13)"/><path class="cls-2" d="M106.69,90.15v8.92s.72,2.47,2.79,2.59,5,0,5,0,2.91-.45,2.91-3.17V89.67s-.28-2.59-2.63-2.8a44.73,44.73,0,0,0-5.91.07A3.18,3.18,0,0,0,106.69,90.15Z" transform="translate(-71.07 -54.13)"/></g></svg>