<svg id="Layer_1" data-name="Layer 1" xmlns="http://www.w3.org/2000/svg" viewBox="0 0 90.36 78.36"><defs><style>.cls-1{fill:#7bc9ac;}.cls-2{fill:none;stroke:#000;stroke-miterlimit:10;}</style></defs><g id="Layer_1-2" data-name="Layer 1"><circle class="cls-1" cx="53.56" cy="36.8" r="36.8"/></g><path class="cls-2" d="M123.91,96s.28-11.55,4.69-12.11c0,0,2.54-.66,2.54,3.38s-.66,22.24-.66,22.24a8.13,8.13,0,0,1-2,5.26c-2.06,2.25-5.47,6.26-5.94,8.33,0,0,4-.45,4.11,4.15v2.82s-.33,2-3.05,1.87H105.8s-1.88-.48-1.6-5.08c0,0-.75-3.84,3.57-3.66l.56-1.4s.57-9.76,7.13-12.77c0,0,4.13-11.07,5.45-12.76,0,0,4.88-2.21,5.82,3.68,0,0-3,8.14-4.13,10.21l-1.13,2.06" transform="translate(-59.17 -54.13)"/><path class="cls-2" d="M66.89,96s-.28-11.55-4.69-12.11c0,0-2.53-.66-2.53,3.38s.65,22.24.65,22.24a8.19,8.19,0,0,0,2,5.26c2.07,2.25,5.47,6.26,5.94,8.33,0,0-4-.45-4.11,4.15v2.82s.33,2,3,1.87H85s1.87-.48,1.59-5.08c0,0,.75-3.84-3.56-3.66l-.57-1.4s-.56-9.76-7.13-12.77c0,0-4.13-11.07-5.44-12.76,0,0-4.88-2.21-5.82,3.68,0,0,3,8.14,4.13,10.21l1.12,2.06" transform="translate(-59.17 -54.13)"/><line class="cls-2" x1="63.02" y1="69.11" x2="48.6" y2="69.12"/><line class="cls-2" x1="23.86" y1="69.08" x2="9.44" y2="69.09"/><path class="cls-2" d="M85.53,96.79S80.8,83.93,79,81.87c0,0-4.75-6.2.79-16.15,0,0,3.51-7.69,17-8s17.83,12.76,15.68,20.92c0,0-3.12,7.7-4.9,11.55s-2.81,6.57-2.81,6.57Z" transform="translate(-59.17 -54.13)"/><path class="cls-2" d="M104.77,96.79s2.62,2.53.56,4.69c0,0,1.59,3.85-.56,5.07,0,0,2.8,4.6-.62,5s-18.91,0-18.91,0-1.22-3.28,0-5c0,0-1.73-3.85.33-5.07,0,0-2.95-2.81,0-4.69" transform="translate(-59.17 -54.13)"/><line class="cls-2" x1="46.16" y1="47.35" x2="25.9" y2="47.35"/><polyline class="cls-2" points="45.6 52.42 25.61 52.42 35.6 52.42"/><path class="cls-2" d="M89.09,111.69s6,10.87,12.2,0" transform="translate(-59.17 -54.13)"/><path class="cls-2" d="M111.15,107.94" transform="translate(-59.17 -54.13)"/><path class="cls-2" d="M86,80.62S97,63.45,98.08,63.24c0,0,2.32-.85,1.48,1.9s-3.17,9.36-3.17,9.36,5.07-2.18,7-1.9c0,0,2.22-.14.79,2.25s-10.93,17-10.93,17-2.39.64-1.62-2,2.54-9.22,2.54-9.22l-6.06,1.76S85.34,83,86,80.62Z" transform="translate(-59.17 -54.13)"/></svg>