<svg xmlns="http://www.w3.org/2000/svg" viewBox="0 0 78.98 73.6"><defs><style>.cls-1{fill:#7bc9ac;}.cls-2{fill:none;stroke:#000;stroke-miterlimit:10;}</style></defs><g id="Layer_1" data-name="Layer 1"><g id="Layer_1-2" data-name="Layer 1"><circle class="cls-1" cx="42.18" cy="36.8" r="36.8"/></g></g><g id="Layer_7" data-name="Layer 7"><rect class="cls-2" x="6.51" y="16.12" width="18.7" height="10.3"/><polyline class="cls-2" points="35.93 16.12 32.15 16.12 32.15 26.41 51.06 26.41 51.06 16.12 47.7 16.12"/><rect class="cls-2" x="32.15" y="35.66" width="18.91" height="10.3"/><polyline class="cls-2" points="21.86 35.66 25.22 35.66 25.22 45.96 6.51 45.96 6.51 35.66 9.88 35.66"/><polygon class="cls-2" points="6.51 55.27 6.51 60.28 6.51 65.29 25.22 65.29 25.22 55.27 6.51 55.27"/><polyline class="cls-2" points="6.51 40.81 0.5 40.81 0.5 60.28 6.51 60.28"/><line class="cls-2" x1="25.22" y1="40.81" x2="32.15" y2="40.81"/><polyline class="cls-2" points="51.06 40.81 57.58 40.81 57.58 21.27 51.06 21.27"/><line class="cls-2" x1="32.15" y1="21.27" x2="25.22" y2="21.27"/><line class="cls-2" x1="38.46" y1="12.55" x2="45.39" y2="19.9"/><line class="cls-2" x1="45.39" y1="12.55" x2="38.46" y2="19.9"/><line class="cls-2" x1="11.98" y1="31.04" x2="19.54" y2="39.44"/><line class="cls-2" x1="20.09" y1="31.16" x2="12" y2="39.57"/></g></svg>