<svg xmlns="http://www.w3.org/2000/svg" viewBox="0 0 91.68 76.27"><defs><style>.cls-1{fill:#7bc9ac;}.cls-2{fill:none;stroke:#000;stroke-miterlimit:10;}</style></defs><g id="Layer_1" data-name="Layer 1"><g id="Layer_1-2" data-name="Layer 1"><circle class="cls-1" cx="54.88" cy="36.8" r="36.8"/></g></g><g id="Layer_2" data-name="Layer 2"><path class="cls-2" d="M97.64,103.94s-2.1,1.82-1.82,2.28,21.51,21,21.51,21,4.92,5.13,9.39,1.12c0,0,4.83-4.28,1.91-9.11L105.57,96.47l-2.46,2.18L79.59,75.59l-.91-5.83L66.1,61.65l-3.92,4.19,7.11,12.85,5.65,1,23.52,23.16Z" transform="translate(-57.85 -54.13)"/><line class="cls-2" x1="42.77" y1="56.86" x2="52.72" y2="47.28"/><path class="cls-2" d="M66.19,113.42l-7,7.11-.82-.41S57.6,103,75.1,106.72L88.74,93.28l6.38,6.28L81.73,113.49s3.9,16.08-12.1,16.41h-.75l-.68-.75,6.9-6.77-2.39-6.84Z" transform="translate(-57.85 -54.13)"/><path class="cls-2" d="M113.06,66l7-7.1-.41-.82s-17.17-.56-13.22,16.9L93.17,88.76l6.34,6.31L113.3,81.54s16.11,3.72,16.28-12.28v-.75l-.77-.68-6.69,7-6.86-2.32Z" transform="translate(-57.85 -54.13)"/></g></svg>