<svg xmlns="http://www.w3.org/2000/svg" viewBox="0 0 74.1 77.4"><defs><style>.cls-1{fill:#7bc9ac;}.cls-2{fill:none;stroke:#000;stroke-miterlimit:10;}</style></defs><g id="Layer_1" data-name="Layer 1"><g id="Layer_1-2" data-name="Layer 1"><circle class="cls-1" cx="37.3" cy="36.8" r="36.8"/></g></g><g id="Layer_5" data-name="Layer 5"><path class="cls-2" d="M98.49,115.24,94.4,128.5S93.85,131.43,90,131c0,0-3.78-1.06-2.9-4.41l4-13.6" transform="translate(-75.43 -54.13)"/><circle class="cls-2" cx="27.39" cy="34.04" r="23.53"/><circle class="cls-2" cx="27.39" cy="34.04" r="26.88"/><line class="cls-2" x1="16.07" y1="70.74" x2="15.28" y2="73.28"/><path class="cls-2" d="M121.69,113.1s-6.17,5.23-13,5.29" transform="translate(-75.43 -54.13)"/><path class="cls-2" d="M81,66.66s5.31-6.1,12.06-7.19" transform="translate(-75.43 -54.13)"/><path class="cls-2" d="M82.45,100s3.83-6.24,9.06-8.33A8.75,8.75,0,0,1,95.34,91l4.37,7.26-3.83,12.43" transform="translate(-75.43 -54.13)"/><path class="cls-2" d="M112.8,109.31s.35-7.31-2.8-12a8.78,8.78,0,0,0-2.79-2.7l-7.5,3.6" transform="translate(-75.43 -54.13)"/><polyline class="cls-2" points="16.08 37.49 19.11 41.08 18.71 42.4 22.66 47.68"/><polyline class="cls-2" points="16.4 38.16 19.43 41.75 19.02 43.07 22.98 48.34"/><polyline class="cls-2" points="22.98 48.34 27.42 46.81 27.75 45.47 33.85 42.97"/><path class="cls-2" d="M113.59,84.3C115,87.36,111,88.4,111,88.4c-3,8.84-10.48,5.53-10.48,5.53-8-2.63-4.92-10.67-4.92-10.67-3.3-3.65,1.71-4.35,1.71-4.35s1.06-3.58,4.44-3c0,0,6.29,5.81,7.09,6s.13-6.66.13-6.66" transform="translate(-75.43 -54.13)"/><path class="cls-2" d="M111.08,74l3.84,9.51s-.23.65-.82.57c0,0-6.2.83-9.83-9.85" transform="translate(-75.43 -54.13)"/><path class="cls-2" d="M114.29,82s6.34-11.51-5.06-12.4l-.66.06s-10.6-6-10.94,8.25" transform="translate(-75.43 -54.13)"/></g></svg>