<svg xmlns="http://www.w3.org/2000/svg" viewBox="0 0 86.1 73.6"><defs><style>.cls-1{fill:#7bc9ac;}.cls-2{fill:none;stroke:#000;stroke-miterlimit:10;}</style></defs><g id="Layer_1" data-name="Layer 1"><g id="Layer_1-2" data-name="Layer 1"><circle class="cls-1" cx="49.3" cy="36.8" r="36.8"/></g></g><g id="Layer_4" data-name="Layer 4"><path class="cls-2" d="M106.38,97.67s.48,4.45,4,6.73a16.32,16.32,0,0,1,5.77,18.12L74,120.71a20.27,20.27,0,0,0-8.19-10.65s-5.71-9.66,3.06-16.27c0,0-2.15-12.64,6.71-14.54,0,0,1.58-8.93,5.13-10,0,0,.81-1.08,3.93.23,0,0,2-8.71,13.27-1.73l.81.61s3.55-13.6,8.06-1.1l.22,1s8.81-8,13.89-8.84c0,0,.8,0,1,.53a40.39,40.39,0,0,1-7.06,14.76s9.83,6.93,11.94,18.63c0,0-3.8,8.43-12.63,2.06,0,0-4.56,2.57-7.4,1.34Z" transform="translate(-63.43 -54.13)"/><path class="cls-2" d="M103.07,81.3s3.38,2.93,6,.36" transform="translate(-63.43 -54.13)"/><line class="cls-2" x1="56.35" y1="35.28" x2="58.7" y2="36.5"/><path class="cls-2" d="M97.89,92s3,4.86,8.57,4.5" transform="translate(-63.43 -54.13)"/><path class="cls-2" d="M98.67,68.33s1.76,9.6-8.71,5.59A7.8,7.8,0,0,1,83,82.8s1.3,6.48-.57,9.28c0,0-1,5,1.33,9.11,0,0,3,7.42-9.84,19.52" transform="translate(-63.43 -54.13)"/><path class="cls-2" d="M107,68.18s0,3.2.1,3a22.78,22.78,0,0,1,7.78,3.44" transform="translate(-63.43 -54.13)"/></g></svg>