<svg id="Layer_1" data-name="Layer 1" xmlns="http://www.w3.org/2000/svg" viewBox="0 0 87.98 77.76"><defs><style>.cls-1{fill:#7bc9ac;}.cls-2{fill:none;stroke:#231f20;stroke-miterlimit:10;}</style></defs><circle class="cls-1" cx="51.18" cy="36.8" r="36.8"/><rect class="cls-2" x="56.81" y="32.07" width="11.97" height="11.68"/><rect class="cls-2" x="0.5" y="32.07" width="11.97" height="11.68"/><rect class="cls-2" x="29" y="2.84" width="11.64" height="11.64"/><path class="cls-2" d="M102.6,63.6s13.28-2.37,22.1,22.6" transform="translate(-61.55 -54.13)"/><path class="cls-2" d="M90.55,63.6s-13.28-2.37-22.1,22.6" transform="translate(-61.55 -54.13)"/><line class="cls-2" x1="40.63" y1="8.65" x2="58.67" y2="8.65"/><line class="cls-2" x1="10.8" y1="8.73" x2="28.83" y2="8.73"/><circle class="cls-2" cx="62.8" cy="8.73" r="3.83"/><circle class="cls-2" cx="6.97" cy="8.65" r="3.83"/><path class="cls-2" d="M89.58,107.45s-3.52-5.91-3.38-8.72l-3.66-3.1L93.19,74.4H94.5l-.21,15.81s-2.51,1.85-1.85,4.48a4.25,4.25,0,0,0,3.54,3s3.71.43,4.51-3.14-1.86-4.3-1.86-4.3l-.36-15.8H99.7l10.38,21.14-3.28,3.19s-2.54,7.41-3.76,8.72Z" transform="translate(-61.55 -54.13)"/><path class="cls-2" d="M103,107.45a13.08,13.08,0,0,1,2.44,2.75v4.22s1.13,11.76,1.41,17H86s1-14.85,1.47-16.76l.07-4.78a10.23,10.23,0,0,1,2-2.4" transform="translate(-61.55 -54.13)"/><line class="cls-2" x1="26.02" y1="61.07" x2="43.65" y2="61.07"/><line class="cls-2" x1="19.58" y1="69.42" x2="17.51" y2="67.55"/><path class="cls-2" d="M76.39,119.19a30.16,30.16,0,0,1-2.82-3.43" transform="translate(-61.55 -54.13)"/><path class="cls-2" d="M72,113.09a19.34,19.34,0,0,1-2.35-4" transform="translate(-61.55 -54.13)"/><path class="cls-2" d="M68.69,106a29.54,29.54,0,0,1-.89-4.83" transform="translate(-61.55 -54.13)"/><line class="cls-2" x1="50.15" y1="69.42" x2="52.21" y2="67.55"/><path class="cls-2" d="M116.44,119.19a30.16,30.16,0,0,0,2.82-3.43" transform="translate(-61.55 -54.13)"/><path class="cls-2" d="M120.85,113.09a19.34,19.34,0,0,0,2.35-4" transform="translate(-61.55 -54.13)"/><path class="cls-2" d="M124.14,106a28.43,28.43,0,0,0,.89-4.83" transform="translate(-61.55 -54.13)"/></svg>